<svg width="134" height="35" fill="none" xmlns="http://www.w3.org/2000/svg"><circle cx="61" cy="17" r="17" fill="#F9CADA"/><path d="M3.332 8.296l-2.156-.364V6.196h8.96v1.736l-2.688.364v16.716l5.992-.252 1.764-5.236 2.268.308L16.604 27H1.12v-1.68l2.212-.28V8.296zM31.744 27.28c-.616 0-1.064-.13-1.345-.392-.28-.261-.42-.653-.42-1.176v-.756c-.503.616-1.213 1.167-2.127 1.652-.915.467-1.83.7-2.744.7-1.793 0-3.071-.457-3.837-1.372-.765-.933-1.148-2.464-1.148-4.592v-7.896l-1.4-.392V11.46l4.76-.364h.029l.56.392v9.856c0 1.363.168 2.315.504 2.856.335.541.96.812 1.875.812 1.102 0 2.128-.43 3.08-1.288V13.448l-1.875-.42V11.46l5.068-.364h.056l.672.392v13.776h1.568l-.029 1.596c-.074.019-.42.093-1.035.224-.617.13-1.354.196-2.213.196zm10.378-7.924l-4.62-5.964-1.456-.336v-1.624h8.092v1.624l-1.82.336L44.53 16.5l.728 1.176.728-1.176 2.268-3.108-1.904-.336v-1.624h6.076v1.624l-1.596.336-4.424 5.432 4.844 6.272 1.54.252V27h-8.092v-1.652l1.652-.28-2.156-3.276-.84-1.232-.672 1.204-2.296 3.304 2.156.28V27h-6.72v-1.652l1.792-.28 4.508-5.712zm18.885 7.952c-1.008 0-1.913-.084-2.716-.252a40.247 40.247 0 01-2.688-.672c-.653-.187-1.092-.29-1.316-.308l.252-5.18h2.268l.616 3.612c.243.261.672.495 1.288.7.635.205 1.354.308 2.156.308 1.251 0 2.184-.27 2.8-.812.635-.56.952-1.335.952-2.324 0-.653-.186-1.213-.56-1.68-.373-.485-.886-.915-1.54-1.288-.653-.392-1.549-.84-2.688-1.344-1.549-.71-2.837-1.55-3.864-2.52-1.008-.99-1.512-2.324-1.512-4.004 0-1.045.271-1.988.812-2.828.542-.859 1.344-1.53 2.408-2.016 1.083-.504 2.4-.756 3.948-.756.915 0 1.718.065 2.408.196a27.8 27.8 0 012.296.532c.486.13.85.215 1.092.252l-.168 4.9h-2.24l-.588-3.444c-.168-.168-.504-.327-1.008-.476a5.29 5.29 0 00-1.68-.252c-1.12 0-1.969.261-2.548.784-.56.504-.84 1.185-.84 2.044 0 .69.206 1.288.616 1.792.43.504.943.933 1.54 1.288.598.336 1.54.821 2.828 1.456 1.046.504 1.942.999 2.688 1.484a6.936 6.936 0 011.932 1.904c.542.765.812 1.67.812 2.716a5.931 5.931 0 01-.784 2.94c-.504.933-1.344 1.708-2.52 2.324-1.157.616-2.64.924-4.452.924zm25.3-8.596c0 1.568-.327 3.005-.98 4.312a7.512 7.512 0 01-2.828 3.136c-1.233.765-2.707 1.148-4.424 1.148-.374 0-.766-.037-1.177-.112a4.486 4.486 0 01-.951-.224l.084 2.324v2.548l2.603.336v1.596h-8.316V32.18l1.82-.336V14.092l-1.82-.504v-1.932l4.62-.588h.056l.7.56v1.568c.467-.579 1.102-1.083 1.904-1.512a5.493 5.493 0 012.633-.644c1.773 0 3.229.635 4.368 1.904 1.138 1.25 1.707 3.173 1.707 5.768zm-7.532-5.348c-.56 0-1.093.121-1.597.364s-.886.513-1.147.812v10.388c.13.187.391.345.783.476.411.13.86.196 1.345.196 1.213 0 2.174-.523 2.883-1.568.728-1.064 1.093-2.725 1.093-4.984 0-1.904-.309-3.323-.925-4.256-.615-.952-1.427-1.428-2.435-1.428zm9.513 9.268c0-1.699.85-2.977 2.548-3.836 1.717-.859 3.93-1.297 6.636-1.316v-.644c0-.765-.084-1.363-.252-1.792a1.613 1.613 0 00-.868-.952c-.41-.224-1.017-.336-1.82-.336-.915 0-1.736.121-2.464.364-.728.224-1.484.523-2.268.896l-.868-1.792c.28-.243.747-.532 1.4-.868.672-.336 1.465-.625 2.38-.868a10.245 10.245 0 012.828-.392c1.437 0 2.557.187 3.36.56a3.38 3.38 0 011.764 1.792c.355.821.532 1.923.532 3.304v8.568h1.512v1.568c-.373.093-.905.187-1.596.28-.691.093-1.297.14-1.82.14-.635 0-1.064-.093-1.288-.28-.205-.187-.308-.57-.308-1.148v-.756c-.504.56-1.157 1.064-1.96 1.512-.803.448-1.708.672-2.716.672a5.36 5.36 0 01-2.38-.532 4.385 4.385 0 01-1.708-1.596c-.43-.71-.644-1.559-.644-2.548zm6.524 2.352c.392 0 .84-.112 1.344-.336a5.552 5.552 0 001.316-.868v-4.592c-1.68 0-2.94.29-3.78.868-.821.56-1.232 1.288-1.232 2.184 0 .896.205 1.577.616 2.044.43.467 1.008.7 1.736.7zm9.279-5.684c0-1.605.318-3.033.952-4.284a7.078 7.078 0 012.772-2.912c1.214-.71 2.623-1.064 4.228-1.064.747 0 1.391.056 1.932.168a27.96 27.96 0 011.82.448l.812.224-.168 4.788h-2.436l-.7-3.08c-.112-.485-.662-.728-1.652-.728-1.045 0-1.866.457-2.464 1.372-.578.915-.877 2.343-.896 4.284 0 2.053.355 3.63 1.064 4.732.71 1.083 1.652 1.624 2.828 1.624a7.121 7.121 0 003.92-1.148l.644 1.456c-.485.523-1.232 1.008-2.24 1.456-.989.448-2.062.672-3.22.672-2.389 0-4.19-.737-5.404-2.212-1.194-1.475-1.792-3.407-1.792-5.796zm21.94 8.008c-2.464 0-4.303-.719-5.516-2.156-1.195-1.456-1.792-3.435-1.792-5.936 0-1.68.308-3.136.924-4.368.635-1.232 1.521-2.175 2.66-2.828 1.139-.653 2.455-.98 3.948-.98 1.867 0 3.304.495 4.312 1.484 1.008.97 1.531 2.361 1.568 4.172 0 1.232-.075 2.147-.224 2.744h-9.1c.075 1.699.476 3.024 1.204 3.976.728.933 1.764 1.4 3.108 1.4.728 0 1.475-.121 2.24-.364.784-.243 1.4-.532 1.848-.868l.7 1.54c-.504.541-1.325 1.045-2.464 1.512a9.127 9.127 0 01-3.416.672zm2.184-9.548c.037-.523.056-.924.056-1.204 0-2.483-.831-3.724-2.492-3.724-.915 0-1.624.364-2.128 1.092-.504.728-.784 2.007-.84 3.836h5.404z" fill="#000"/></svg>